<svg width="53" height="60" viewBox="0 0 53 60" fill="none" xmlns="http://www.w3.org/2000/svg">
<path d="M53 0L48.1716 53.9937L26.4676 60L4.82332 54.0022L0 0H53Z" fill="#264DE4"/>
<path d="M44.0379 50.5556L48.1641 4.41547H26.5V55.409L44.0379 50.5556Z" fill="#2965F1"/>
<path d="M11.0571 24.4442L11.6518 31.0672H26.4998V24.4442H11.0571Z" fill="#EBEBEB"/>
<path d="M26.5003 11.0386H26.4774H9.86279L10.4659 17.6619H26.5003V11.0386Z" fill="#EBEBEB"/>
<path d="M26.5002 48.5358V41.645L26.4712 41.6527L19.0817 39.661L18.6093 34.3787H15.0186H11.9487L12.8783 44.778L26.4697 48.5443L26.5002 48.5358Z" fill="#EBEBEB"/>
<path d="M34.6474 31.0671L33.8772 39.6568L26.4771 41.6506V48.5412L40.0793 44.7781L40.179 43.6591L41.7382 26.2226L41.9001 24.4441L43.0979 11.0386H26.4771V17.6619H35.8265L35.2228 24.4441H26.4771V31.0671H34.6474Z" fill="white"/>
</svg>
