<svg width="60" height="60" viewBox="0 0 60 60" fill="none" xmlns="http://www.w3.org/2000/svg">
<path d="M22 57C26.968 57 31 52.968 31 48V39H22C17.032 39 13 43.032 13 48C13 52.968 17.032 57 22 57Z" fill="#0ACF83"/>
<path d="M13 30.5C13 25.808 17.032 22 22 22H31V39H22C17.032 39 13 35.192 13 30.5Z" fill="#A259FF"/>
<path d="M13 13C13 8.032 17.032 4 22 4H31V22H22C17.032 22 13 17.968 13 13Z" fill="#F24E1E"/>
<path d="M31 4H39.5C44.192 4 48 8.032 48 13C48 17.968 44.192 22 39.5 22H31V4Z" fill="#FF7262"/>
<path d="M48 30.5C48 35.192 44.192 39 39.5 39C34.808 39 31 35.192 31 30.5C31 25.808 34.808 22 39.5 22C44.192 22 48 25.808 48 30.5Z" fill="#1ABCFE"/>
</svg>
