<svg width="62" height="60" viewBox="0 0 62 60" fill="none" xmlns="http://www.w3.org/2000/svg">
<path d="M31.0001 0C13.8814 0 0 13.7712 0 30.7594C0 44.35 8.88246 55.8798 21.1998 59.9472C22.7491 60.2318 23.318 59.2799 23.318 58.4674C23.318 57.734 23.2891 55.3108 23.2759 52.7406C14.6514 54.6013 12.8316 49.1113 12.8316 49.1113C11.4215 45.5559 9.38963 44.6108 9.38963 44.6108C6.57712 42.7016 9.60164 42.7407 9.60164 42.7407C12.7147 42.9578 14.3538 45.9106 14.3538 45.9106C17.1187 50.6131 21.6059 49.2534 23.3749 48.4677C23.653 46.4794 24.4566 45.1227 25.343 44.3546C18.4576 43.5766 11.2192 40.9391 11.2192 29.153C11.2192 25.7949 12.4302 23.0508 14.4134 20.8968C14.0915 20.1219 13.0305 16.9935 14.7137 12.7566C14.7137 12.7566 17.3168 11.9298 23.2409 15.9096C25.7135 15.2279 28.3656 14.8863 31.0001 14.8747C33.6347 14.8863 36.2887 15.2279 38.7661 15.9096C44.6832 11.9298 47.2827 12.7566 47.2827 12.7566C48.97 16.9935 47.9085 20.1219 47.5866 20.8968C49.5742 23.0508 50.7769 25.7947 50.7769 29.153C50.7769 40.9671 43.5249 43.5686 36.622 44.33C37.7338 45.2845 38.7246 47.1566 38.7246 50.0261C38.7246 54.1417 38.6886 57.4542 38.6886 58.4674C38.6886 59.2859 39.2466 60.2451 40.8181 59.9431C53.1287 55.8712 62 44.3454 62 30.7594C62 13.7712 48.1205 0 31.0001 0Z" fill="#161614"/>
<path d="M11.6106 43.8176C11.5425 43.9703 11.2999 44.0161 11.0793 43.9114C10.8544 43.8111 10.728 43.6026 10.801 43.4492C10.8678 43.2919 11.1105 43.248 11.3349 43.3537C11.5602 43.4538 11.6886 43.6642 11.6106 43.8176V43.8176ZM13.1355 45.1676C12.9877 45.3036 12.6986 45.2404 12.5024 45.0255C12.2996 44.811 12.2617 44.5244 12.4117 44.3862C12.5641 44.2504 12.8445 44.3138 13.0477 44.5285C13.2505 44.7454 13.2899 45.0303 13.1352 45.1678L13.1355 45.1676ZM14.1817 46.8949C13.9915 47.0259 13.6808 46.9031 13.489 46.6295C13.2991 46.3562 13.2991 46.0281 13.4931 45.8966C13.6857 45.7651 13.9915 45.8833 14.186 46.1547C14.3757 46.4329 14.3757 46.761 14.1814 46.8951L14.1817 46.8949ZM15.9507 48.8955C15.7807 49.0812 15.4189 49.0315 15.1539 48.7777C14.8831 48.5298 14.8075 48.1778 14.9779 47.9918C15.1498 47.8055 15.5138 47.8579 15.7807 48.1095C16.0499 48.357 16.132 48.7116 15.9509 48.8955H15.9507ZM18.2371 49.5709C18.1624 49.8117 17.8138 49.9212 17.4627 49.8189C17.1121 49.7135 16.8826 49.4313 16.9533 49.1879C17.0263 48.9454 17.3764 48.8313 17.7301 48.9408C18.0802 49.0458 18.3102 49.3258 18.2373 49.5709H18.2371ZM20.8395 49.8573C20.8483 50.1111 20.5504 50.3214 20.1818 50.326C19.8111 50.334 19.5113 50.1287 19.5074 49.8793C19.5074 49.6231 19.7984 49.4146 20.169 49.4086C20.5375 49.4014 20.8395 49.6052 20.8395 49.8573V49.8573ZM23.3958 49.7601C23.44 50.0076 23.1838 50.2619 22.8178 50.3294C22.458 50.3945 22.1249 50.2418 22.079 49.9965C22.0342 49.7427 22.2954 49.4887 22.6545 49.4228C23.0211 49.3596 23.3491 49.5085 23.3958 49.7601" fill="#161614"/>
</svg>
