<svg width="63" height="60" viewBox="0 0 63 60" fill="none" xmlns="http://www.w3.org/2000/svg">
<path d="M11.1562 0H51.8437C58.0125 0 63 4.8718 63 10.8974V49.1026C63 55.1282 58.0125 60 51.8437 60H11.1562C4.9875 60 0 55.1282 0 49.1026V10.8974C0 4.8718 4.9875 0 11.1562 0Z" fill="#330000"/>
<path d="M30.5288 35.9999H20.7638L18.7688 42.0256C18.7163 42.2563 18.5063 42.4102 18.2701 42.3846H13.3351C13.0463 42.3846 12.9676 42.2307 13.0463 41.923L21.4988 18.1538C21.5776 17.8974 21.6563 17.6153 21.7613 17.3076C21.8663 16.7692 21.9188 16.2051 21.9188 15.641C21.8926 15.5128 21.9976 15.3846 22.1288 15.3589C22.1551 15.3589 22.1813 15.3589 22.2076 15.3589H28.9276C29.1376 15.3589 29.2426 15.4358 29.2688 15.564L38.8501 41.9743C38.9288 42.2564 38.8501 42.3846 38.5876 42.3846H33.1013C32.9176 42.4102 32.7338 42.282 32.6813 42.1025L30.5288 35.9999ZM22.2863 30.7948H28.9538C28.7963 30.2564 28.5863 29.6153 28.3501 28.9487C28.1138 28.2564 27.8776 27.5128 27.6413 26.7435C27.3788 25.9487 27.1426 25.1794 26.8801 24.3846C26.6176 23.5897 26.3813 22.8461 26.1713 22.1025C25.9613 21.3846 25.7776 20.7179 25.5938 20.1025H25.5413C25.3051 21.2051 25.0163 22.3076 24.6488 23.4102C24.2551 24.641 23.8613 25.923 23.4413 27.2051C23.0738 28.5128 22.6801 29.7179 22.2863 30.7948Z" fill="#FF9A00"/>
<path d="M44.5726 19.7436C43.7063 19.7692 42.8663 19.4359 42.2363 18.8461C41.6326 18.2051 41.3176 17.359 41.3438 16.4872C41.3176 15.6154 41.6588 14.7949 42.2888 14.2051C42.9188 13.6154 43.7588 13.3077 44.6251 13.3077C45.6488 13.3077 46.4363 13.6154 47.0138 14.2051C47.5913 14.8205 47.9063 15.641 47.8801 16.4872C47.9063 17.359 47.5913 18.2051 46.9613 18.8461C46.3576 19.4615 45.4651 19.7949 44.5726 19.7436ZM41.6326 42V22.2564C41.6326 22 41.7376 21.8974 41.9738 21.8974H47.1713C47.4076 21.8974 47.5126 22.0256 47.5126 22.2564V42C47.5126 42.282 47.4076 42.4102 47.1713 42.4102H42.0263C41.7638 42.4102 41.6326 42.2564 41.6326 42Z" fill="#FF9A00"/>
</svg>
