<?xml version="1.0" encoding="UTF-8"?>
<svg id="Livello_2" data-name="Livello 2" xmlns="http://www.w3.org/2000/svg" viewBox="0 0 180.72 171.04">
  <defs>
    <style>
      .cls-1, .cls-2, .cls-3 {
        fill: #2c2e3a;
      }

      .cls-4 {
        fill: #922f47;
      }

      .cls-2 {
        font-family: Poppins-Regular, Poppins;
        font-size: 16px;
      }

      .cls-5 {
        fill: none;
        stroke: #2c2e3a;
        stroke-miterlimit: 10;
        stroke-width: 1.14px;
      }

      .cls-6 {
        fill: #c6bbce;
      }

      .cls-3 {
        font-family: Poppins-Medium, Poppins;
        font-size: 24px;
        font-weight: 500;
      }
    </style>
  </defs>
  <g id="Livello_1-2" data-name="Livello 1">
    <g>
      <text class="cls-2" transform="translate(22.5 126.94)"><tspan x="0" y="0">GRETA ANDREOLLI</tspan></text>
      <text class="cls-3" transform="translate(0 157.08)"><tspan x="0" y="0">UX/UI Designer</tspan></text>
      <g>
        <g>
          <path class="cls-1" d="M100.7,13.04c.03.64.15,1.82.25,2.75s.46,1.73,1.04,2.4l3.23,3.76,4.64,5.84c.04.05.09.11.14.15l4.07,3.97-13.38-18.87Z"/>
          <path class="cls-5" d="M105.26,20.52l-.31-8.24c-.07-1.95.43-3.89,1.44-5.56l.58-.95c.72-1.18,1.66-2.21,2.77-3.04l.82-.6c.82-.6,2.04-1.21,3.25-1.49,1.37-.31,2.75.53,3.17,1.88l.16.52c.16.52.1,1.09-.17,1.57l-.84,1.46c-.38.67-.53,1.46-.34,2.2.12.49.31.96.55,1.4l.35.63c.46.82.79,1.72.97,2.65l.05.26c.2,1.05-.06,2.14-.71,2.99l-1.94,2.51,4.23-.53c1.01-.13,2.04.07,2.92.57h0c.88.49,1.55,1.29,1.88,2.24l.11.31c.33.95.4,1.97.2,2.95l-.28,1.37c-.15.74-.5,1.42-1.01,1.97l-.13.14c-.85.92-2.05,1.44-3.3,1.44h-.06c-.84,0-1.66-.2-2.4-.59l-5.06-2.63-5.11-2.62"/>
        </g>
        <g>
          <path class="cls-6" d="M88.83,50.88l7.35-3.47-13.4-37.46h-9.5l-17.93,50.11h8.57l3.6-10.22h20.95l.37,1.05ZM69.81,43.13l8.21-23.26,8.14,23.26h-16.34Z"/>
          <path class="cls-4" d="M111.52,42.28c2.38,1.22,4.24,2.75,5.58,4.57v-5.76h8.28v40.32c0,3.65-.77,6.9-2.3,9.76-1.54,2.86-3.76,5.1-6.66,6.73-2.9,1.63-6.37,2.45-10.4,2.45-5.38,0-9.84-1.26-13.39-3.78-3.55-2.52-5.57-5.94-6.05-10.26h8.14c.62,2.06,1.96,3.73,4,5,2.04,1.27,4.48,1.91,7.31,1.91,3.31,0,5.99-1.01,8.03-3.02,2.04-2.02,3.06-4.94,3.06-8.78v-6.62c-1.39,1.87-3.28,3.44-5.65,4.72-2.38,1.27-5.08,1.91-8.1,1.91-3.46,0-6.61-.88-9.47-2.63-2.86-1.75-5.11-4.2-6.77-7.34-1.66-3.14-2.48-6.71-2.48-10.69s.83-7.51,2.48-10.58c1.66-3.07,3.91-5.46,6.77-7.16,2.86-1.7,6.01-2.56,9.47-2.56,3.07,0,5.8.61,8.17,1.84ZM115.4,53.76c-1.13-2.02-2.6-3.55-4.43-4.61-1.83-1.06-3.79-1.58-5.9-1.58s-4.08.52-5.9,1.55c-1.82,1.03-3.3,2.54-4.43,4.54-1.13,1.99-1.69,4.36-1.69,7.09s.56,5.14,1.69,7.2c1.13,2.06,2.62,3.64,4.46,4.72,1.85,1.08,3.8,1.62,5.87,1.62s4.08-.53,5.9-1.58c1.82-1.06,3.3-2.6,4.43-4.64,1.13-2.04,1.69-4.43,1.69-7.16s-.57-5.11-1.69-7.13Z"/>
        </g>
      </g>
    </g>
  </g>
</svg>