<svg width="60" height="60" viewBox="0 0 60 60" fill="none" xmlns="http://www.w3.org/2000/svg">
<path d="M0 52.2635C0 56.5366 3.46383 60 7.73648 60H52.2633C56.5366 60 60 56.5362 60 52.2635V7.73672C60 3.46336 56.5362 0 52.2635 0H7.73672C3.46336 0 0 3.46383 0 7.73648V52.2633V52.2635Z" fill="#563D7C"/>
<path d="M24.8808 26.5402V18.0434H32.36C33.0725 18.0434 33.7592 18.1027 34.4206 18.2215C35.082 18.3401 35.6672 18.552 36.1761 18.8573C36.6847 19.1627 37.0918 19.5867 37.3972 20.1293C37.7023 20.6721 37.8551 21.3675 37.8551 22.2152C37.8551 23.7417 37.3972 24.8442 36.4812 25.5225C35.5655 26.201 34.3953 26.5402 32.9705 26.5402H24.8808V26.5402ZM16.8926 11.8359V48.1641H34.497C36.1252 48.1641 37.711 47.9606 39.2544 47.5535C40.7977 47.1464 42.1714 46.519 43.3756 45.671C44.5796 44.823 45.538 43.729 46.2502 42.3893C46.9627 41.0494 47.3187 39.4636 47.3187 37.632C47.3187 35.3592 46.7675 33.4174 45.6652 31.8063C44.5627 30.195 42.8921 29.0672 40.6533 28.4227C42.2815 27.6427 43.5113 26.6419 44.3424 25.4208C45.1733 24.1997 45.5888 22.6734 45.5888 20.8416C45.5888 19.1456 45.309 17.7211 44.7493 16.5677C44.1896 15.4146 43.4009 14.4902 42.3833 13.7948C41.3658 13.0995 40.1447 12.5991 38.72 12.2939C37.2954 11.9885 35.7181 11.8359 33.9882 11.8359H16.8926V11.8359ZM24.8808 41.9566V31.9842H33.5811C35.311 31.9842 36.7018 32.3827 37.7534 33.18C38.8048 33.9771 39.3308 35.3084 39.3308 37.174C39.3308 38.1239 39.1695 38.9039 38.8472 39.5145C38.525 40.125 38.0926 40.6085 37.5497 40.9645C37.0072 41.3208 36.3795 41.5751 35.6672 41.7279C34.9547 41.8802 34.2087 41.9566 33.4285 41.9566H24.8808V41.9566Z" fill="white"/>
</svg>
