<svg width="61" height="60" viewBox="0 0 61 60" fill="none" xmlns="http://www.w3.org/2000/svg">
<path d="M13.2146 0H47.7854C55.0787 0 61 5.82421 61 12.9979V47.0021C61 54.1758 55.0787 60 47.7854 60H13.2146C5.92128 60 0 54.1758 0 47.0021V12.9979C0 5.82421 5.92128 0 13.2146 0Z" fill="#FFD02F"/>
<path d="M42.3876 7.49335H35.6901L41.2684 17.1353L28.9925 7.49335H22.295L28.4329 19.2838L15.5974 7.49335H8.8999L15.5974 22.4978L8.8999 52.5067H15.5974L28.4329 20.3492L22.295 52.5067H28.9925L41.2684 18.2184L35.6901 52.5067H42.3876L54.6634 14.9867L42.3876 7.49335Z" fill="#050038"/>
</svg>
